# xmcd
# 
# Track frame offsets:
#     150
#     16017
#     31397
#     44015
#     55017
#     65697
#     76750
#     90077
#     104310
#     115517
#     128837
#     148682
#     164562
#     177035
#     190790
#     204245
# 
# Disc length: 2904
# 
# Revision: 2
# Processed by: cddbd v1.5.2PL0 Copyright (c) Steve Scherf et al.
# Submitted via: BonkEnc v1.0.8
# 
DISCID=c50b5610
DTITLE=Manuela - Manuela - 16 Goldene Hits
DYEAR=1994
DGENRE=Schlager
TTITLE0=Für immer
TTITLE1=Olé Mallorca
TTITLE2=Schuld war nur der Bossa Nova
TTITLE3=Ich geh' noch zur Schule
TTITLE4=Schwimmen lernt man am See
TTITLE5=Schneemann
TTITLE6=Küsse unterm Regenbogen
TTITLE7=Love and Kisses
TTITLE8=Lord Leicester aus Manchester
TTITLE9=Monsieur Dupont
TTITLE10=Wenn es Nacht wird in Harlem
TTITLE11=Guantanamera
TTITLE12=Helicopter US-Navy 66
TTITLE13=Alles und noch viel mehr
TTITLE14=Der schwarze Mann auf dem Dach
TTITLE15=Prost, Onkel Albert
EXTD=Sonderedition YEAR: 1994
EXTT0=
EXTT1=
EXTT2=
EXTT3=
EXTT4=
EXTT5=
EXTT6=
EXTT7=
EXTT8=
EXTT9=
EXTT10=
EXTT11=
EXTT12=
EXTT13=
EXTT14=
EXTT15=
PLAYORDER=
